<svg xmlns="http://www.w3.org/2000/svg" xmlns:xlink="http://www.w3.org/1999/xlink" width="1515" zoomAndPan="magnify" viewBox="0 0 1136.25 540.749989" height="721" preserveAspectRatio="xMidYMid meet" version="1.0"><defs><filter x="0%" y="0%" width="100%" height="100%" id="b8fe1bca3e"><feColorMatrix values="0 0 0 0 1 0 0 0 0 1 0 0 0 0 1 0 0 0 1 0" color-interpolation-filters="sRGB"/></filter><g/><clipPath id="5dd16c4598"><path d="M 0 0.0546875 L 1135.5 0.0546875 L 1135.5 540.445312 L 0 540.445312 Z M 0 0.0546875 " clip-rule="nonzero"/></clipPath><clipPath id="c1297b40e2"><rect x="0" width="602" y="0" height="427"/></clipPath><clipPath id="a597625905"><path d="M 0 0.0546875 L 1135.5 0.0546875 L 1135.5 540.445312 L 0 540.445312 Z M 0 0.0546875 " clip-rule="nonzero"/></clipPath><clipPath id="59fe957631"><path d="M 0 0.0546875 L 1135.5 0.0546875 L 1135.5 540.445312 L 0 540.445312 Z M 0 0.0546875 " clip-rule="nonzero"/></clipPath><clipPath id="b4e6ef6a4f"><path d="M 0 0.0546875 L 1135.5 0.0546875 L 1135.5 540.445312 L 0 540.445312 Z M 0 0.0546875 " clip-rule="nonzero"/></clipPath><clipPath id="70976854bd"><path d="M 0 0.0546875 L 1135.5 0.0546875 L 1135.5 540.445312 L 0 540.445312 Z M 0 0.0546875 " clip-rule="nonzero"/></clipPath><linearGradient x1="-32.335973" gradientTransform="matrix(1.528824, 0, 0, 1.529087, 49.436018, 39.97992)" y1="149" x2="710.391976" gradientUnits="userSpaceOnUse" y2="149" id="59857b7787"><stop stop-opacity="1" stop-color="rgb(0%, 0%, 0%)" offset="0"/><stop stop-opacity="1" stop-color="rgb(0%, 0%, 0%)" offset="0.03125"/><stop stop-opacity="1" stop-color="rgb(0%, 0%, 0%)" offset="0.0390625"/><stop stop-opacity="1" stop-color="rgb(0.0778198%, 0.0747681%, 0.300598%)" offset="0.0429687"/><stop stop-opacity="1" stop-color="rgb(0.15564%, 0.149536%, 0.602722%)" offset="0.046875"/><stop stop-opacity="1" stop-color="rgb(0.337219%, 0.325012%, 1.309204%)" offset="0.0507812"/><stop stop-opacity="1" stop-color="rgb(0.520325%, 0.500488%, 2.015686%)" offset="0.0546875"/><stop stop-opacity="1" stop-color="rgb(0.701904%, 0.675964%, 2.720642%)" offset="0.0585937"/><stop stop-opacity="1" stop-color="rgb(0.88501%, 0.852966%, 3.427124%)" offset="0.0625"/><stop stop-opacity="1" stop-color="rgb(1.068115%, 1.028442%, 4.133606%)" offset="0.0664062"/><stop stop-opacity="1" stop-color="rgb(1.251221%, 1.203918%, 4.840088%)" offset="0.0703125"/><stop stop-opacity="1" stop-color="rgb(1.4328%, 1.379395%, 5.54657%)" offset="0.0742188"/><stop stop-opacity="1" stop-color="rgb(1.615906%, 1.554871%, 6.253052%)" offset="0.078125"/><stop stop-opacity="1" stop-color="rgb(1.797485%, 1.730347%, 6.959534%)" offset="0.0820312"/><stop stop-opacity="1" stop-color="rgb(1.980591%, 1.905823%, 7.666016%)" offset="0.0859375"/><stop stop-opacity="1" stop-color="rgb(2.16217%, 2.081299%, 8.370972%)" offset="0.0898438"/><stop stop-opacity="1" stop-color="rgb(2.345276%, 2.258301%, 9.077454%)" offset="0.09375"/><stop stop-opacity="1" stop-color="rgb(2.528381%, 2.433777%, 9.783936%)" offset="0.0976562"/><stop stop-opacity="1" stop-color="rgb(2.711487%, 2.609253%, 10.490417%)" offset="0.101562"/><stop stop-opacity="1" stop-color="rgb(2.893066%, 2.784729%, 11.196899%)" offset="0.105469"/><stop stop-opacity="1" stop-color="rgb(3.076172%, 2.960205%, 11.903381%)" offset="0.109375"/><stop stop-opacity="1" stop-color="rgb(3.257751%, 3.135681%, 12.609863%)" offset="0.113281"/><stop stop-opacity="1" stop-color="rgb(3.440857%, 3.312683%, 13.316345%)" offset="0.117187"/><stop stop-opacity="1" stop-color="rgb(3.623962%, 3.488159%, 14.021301%)" offset="0.121094"/><stop stop-opacity="1" stop-color="rgb(3.807068%, 3.663635%, 14.727783%)" offset="0.125"/><stop stop-opacity="1" stop-color="rgb(3.988647%, 3.839111%, 15.434265%)" offset="0.128906"/><stop stop-opacity="1" stop-color="rgb(4.171753%, 4.014587%, 16.140747%)" offset="0.132812"/><stop stop-opacity="1" stop-color="rgb(4.353333%, 4.190063%, 16.847229%)" offset="0.136719"/><stop stop-opacity="1" stop-color="rgb(4.536438%, 4.367065%, 17.553711%)" offset="0.140625"/><stop stop-opacity="1" stop-color="rgb(4.719543%, 4.542542%, 18.258667%)" offset="0.144531"/><stop stop-opacity="1" stop-color="rgb(4.902649%, 4.718018%, 18.965149%)" offset="0.148438"/><stop stop-opacity="1" stop-color="rgb(5.084229%, 4.893494%, 19.671631%)" offset="0.152344"/><stop stop-opacity="1" stop-color="rgb(5.267334%, 5.06897%, 20.378113%)" offset="0.15625"/><stop stop-opacity="1" stop-color="rgb(5.448914%, 5.244446%, 21.084595%)" offset="0.160156"/><stop stop-opacity="1" stop-color="rgb(5.632019%, 5.421448%, 21.791077%)" offset="0.164062"/><stop stop-opacity="1" stop-color="rgb(5.813599%, 5.596924%, 22.497559%)" offset="0.167969"/><stop stop-opacity="1" stop-color="rgb(5.996704%, 5.7724%, 23.204041%)" offset="0.171875"/><stop stop-opacity="1" stop-color="rgb(6.17981%, 5.947876%, 23.908997%)" offset="0.175781"/><stop stop-opacity="1" stop-color="rgb(6.362915%, 6.123352%, 24.615479%)" offset="0.179687"/><stop stop-opacity="1" stop-color="rgb(6.544495%, 6.298828%, 25.32196%)" offset="0.183594"/><stop stop-opacity="1" stop-color="rgb(6.7276%, 6.474304%, 26.028442%)" offset="0.1875"/><stop stop-opacity="1" stop-color="rgb(6.90918%, 6.64978%, 26.734924%)" offset="0.191406"/><stop stop-opacity="1" stop-color="rgb(7.092285%, 6.826782%, 27.441406%)" offset="0.195312"/><stop stop-opacity="1" stop-color="rgb(7.275391%, 7.002258%, 28.146362%)" offset="0.199219"/><stop stop-opacity="1" stop-color="rgb(7.458496%, 7.177734%, 28.852844%)" offset="0.203125"/><stop stop-opacity="1" stop-color="rgb(7.640076%, 7.35321%, 29.559326%)" offset="0.207031"/><stop stop-opacity="1" stop-color="rgb(7.823181%, 7.528687%, 30.265808%)" offset="0.210937"/><stop stop-opacity="1" stop-color="rgb(8.004761%, 7.704163%, 30.97229%)" offset="0.214844"/><stop stop-opacity="1" stop-color="rgb(8.187866%, 7.881165%, 31.678772%)" offset="0.21875"/><stop stop-opacity="1" stop-color="rgb(8.369446%, 8.056641%, 32.385254%)" offset="0.222656"/><stop stop-opacity="1" stop-color="rgb(8.552551%, 8.232117%, 33.091736%)" offset="0.226562"/><stop stop-opacity="1" stop-color="rgb(8.735657%, 8.407593%, 33.796692%)" offset="0.230469"/><stop stop-opacity="1" stop-color="rgb(8.918762%, 8.583069%, 34.503174%)" offset="0.234375"/><stop stop-opacity="1" stop-color="rgb(9.100342%, 8.758545%, 35.209656%)" offset="0.238281"/><stop stop-opacity="1" stop-color="rgb(9.283447%, 8.935547%, 35.916138%)" offset="0.242187"/><stop stop-opacity="1" stop-color="rgb(9.465027%, 9.111023%, 36.62262%)" offset="0.246094"/><stop stop-opacity="1" stop-color="rgb(9.648132%, 9.286499%, 37.329102%)" offset="0.25"/><stop stop-opacity="1" stop-color="rgb(9.831238%, 9.461975%, 38.035583%)" offset="0.253906"/><stop stop-opacity="1" stop-color="rgb(10.014343%, 9.637451%, 38.742065%)" offset="0.257812"/><stop stop-opacity="1" stop-color="rgb(10.195923%, 9.812927%, 39.447021%)" offset="0.261719"/><stop stop-opacity="1" stop-color="rgb(10.379028%, 9.989929%, 40.153503%)" offset="0.265625"/><stop stop-opacity="1" stop-color="rgb(10.560608%, 10.165405%, 40.859985%)" offset="0.269531"/><stop stop-opacity="1" stop-color="rgb(10.743713%, 10.340881%, 41.566467%)" offset="0.273438"/><stop stop-opacity="1" stop-color="rgb(10.925293%, 10.516357%, 42.272949%)" offset="0.277344"/><stop stop-opacity="1" stop-color="rgb(11.108398%, 10.691833%, 42.979431%)" offset="0.28125"/><stop stop-opacity="1" stop-color="rgb(11.291504%, 10.86731%, 43.684387%)" offset="0.285156"/><stop stop-opacity="1" stop-color="rgb(11.474609%, 11.042786%, 44.390869%)" offset="0.289062"/><stop stop-opacity="1" stop-color="rgb(11.656189%, 11.218262%, 45.097351%)" offset="0.292969"/><stop stop-opacity="1" stop-color="rgb(11.839294%, 11.395264%, 45.803833%)" offset="0.296875"/><stop stop-opacity="1" stop-color="rgb(12.020874%, 11.57074%, 46.510315%)" offset="0.300781"/><stop stop-opacity="1" stop-color="rgb(12.203979%, 11.746216%, 47.216797%)" offset="0.304688"/><stop stop-opacity="1" stop-color="rgb(12.387085%, 11.921692%, 47.923279%)" offset="0.308594"/><stop stop-opacity="1" stop-color="rgb(12.57019%, 12.097168%, 48.629761%)" offset="0.3125"/><stop stop-opacity="1" stop-color="rgb(12.75177%, 12.272644%, 49.334717%)" offset="0.316406"/><stop stop-opacity="1" stop-color="rgb(12.934875%, 12.449646%, 50.041199%)" offset="0.320312"/><stop stop-opacity="1" stop-color="rgb(13.116455%, 12.625122%, 50.747681%)" offset="0.324219"/><stop stop-opacity="1" stop-color="rgb(13.299561%, 12.800598%, 51.454163%)" offset="0.328125"/><stop stop-opacity="1" stop-color="rgb(13.48114%, 12.976074%, 52.160645%)" offset="0.332031"/><stop stop-opacity="1" stop-color="rgb(13.664246%, 13.15155%, 52.867126%)" offset="0.335937"/><stop stop-opacity="1" stop-color="rgb(13.847351%, 13.327026%, 53.572083%)" offset="0.339844"/><stop stop-opacity="1" stop-color="rgb(14.030457%, 13.504028%, 54.278564%)" offset="0.34375"/><stop stop-opacity="1" stop-color="rgb(14.212036%, 13.679504%, 54.985046%)" offset="0.347656"/><stop stop-opacity="1" stop-color="rgb(14.395142%, 13.85498%, 55.691528%)" offset="0.351562"/><stop stop-opacity="1" stop-color="rgb(14.576721%, 14.030457%, 56.39801%)" offset="0.355469"/><stop stop-opacity="1" stop-color="rgb(14.759827%, 14.205933%, 57.104492%)" offset="0.359375"/><stop stop-opacity="1" stop-color="rgb(14.942932%, 14.381409%, 57.810974%)" offset="0.363281"/><stop stop-opacity="1" stop-color="rgb(15.126038%, 14.558411%, 58.517456%)" offset="0.367187"/><stop stop-opacity="1" stop-color="rgb(15.307617%, 14.733887%, 59.222412%)" offset="0.371094"/><stop stop-opacity="1" stop-color="rgb(15.490723%, 14.909363%, 59.928894%)" offset="0.375"/><stop stop-opacity="1" stop-color="rgb(15.672302%, 15.084839%, 60.635376%)" offset="0.378906"/><stop stop-opacity="1" stop-color="rgb(15.855408%, 15.260315%, 61.341858%)" offset="0.382812"/><stop stop-opacity="1" stop-color="rgb(16.036987%, 15.435791%, 62.04834%)" offset="0.386719"/><stop stop-opacity="1" stop-color="rgb(16.220093%, 15.611267%, 62.754822%)" offset="0.390625"/><stop stop-opacity="1" stop-color="rgb(16.403198%, 15.786743%, 63.459778%)" offset="0.394531"/><stop stop-opacity="1" stop-color="rgb(16.586304%, 15.963745%, 64.16626%)" offset="0.398437"/><stop stop-opacity="1" stop-color="rgb(16.767883%, 16.139221%, 64.872742%)" offset="0.402344"/><stop stop-opacity="1" stop-color="rgb(16.950989%, 16.314697%, 65.579224%)" offset="0.40625"/><stop stop-opacity="1" stop-color="rgb(17.132568%, 16.490173%, 66.285706%)" offset="0.410156"/><stop stop-opacity="1" stop-color="rgb(17.315674%, 16.665649%, 66.992188%)" offset="0.414062"/><stop stop-opacity="1" stop-color="rgb(17.498779%, 16.841125%, 67.698669%)" offset="0.417969"/><stop stop-opacity="1" stop-color="rgb(17.681885%, 17.018127%, 68.405151%)" offset="0.421875"/><stop stop-opacity="1" stop-color="rgb(17.863464%, 17.193604%, 69.110107%)" offset="0.425781"/><stop stop-opacity="1" stop-color="rgb(18.04657%, 17.36908%, 69.816589%)" offset="0.429687"/><stop stop-opacity="1" stop-color="rgb(18.228149%, 17.544556%, 70.523071%)" offset="0.433594"/><stop stop-opacity="1" stop-color="rgb(18.411255%, 17.720032%, 71.229553%)" offset="0.4375"/><stop stop-opacity="1" stop-color="rgb(18.59436%, 17.895508%, 71.936035%)" offset="0.441406"/><stop stop-opacity="1" stop-color="rgb(18.777466%, 18.07251%, 72.642517%)" offset="0.445312"/><stop stop-opacity="1" stop-color="rgb(18.959045%, 18.247986%, 73.348999%)" offset="0.449219"/><stop stop-opacity="1" stop-color="rgb(19.142151%, 18.423462%, 74.055481%)" offset="0.453125"/><stop stop-opacity="1" stop-color="rgb(19.32373%, 18.598938%, 74.760437%)" offset="0.457031"/><stop stop-opacity="1" stop-color="rgb(19.506836%, 18.774414%, 75.466919%)" offset="0.460937"/><stop stop-opacity="1" stop-color="rgb(19.688416%, 18.94989%, 76.173401%)" offset="0.464844"/><stop stop-opacity="1" stop-color="rgb(19.871521%, 19.126892%, 76.879883%)" offset="0.46875"/><stop stop-opacity="1" stop-color="rgb(20.054626%, 19.302368%, 77.586365%)" offset="0.472656"/><stop stop-opacity="1" stop-color="rgb(20.237732%, 19.477844%, 78.292847%)" offset="0.476562"/><stop stop-opacity="1" stop-color="rgb(20.419312%, 19.65332%, 78.997803%)" offset="0.480469"/><stop stop-opacity="1" stop-color="rgb(20.602417%, 19.828796%, 79.704285%)" offset="0.484375"/><stop stop-opacity="1" stop-color="rgb(20.690918%, 19.914246%, 80.046082%)" offset="0.488281"/><stop stop-opacity="1" stop-color="rgb(20.779419%, 19.999695%, 80.389404%)" offset="0.492187"/><stop stop-opacity="1" stop-color="rgb(20.779419%, 19.999695%, 80.389404%)" offset="0.5"/><stop stop-opacity="1" stop-color="rgb(20.779419%, 19.999695%, 80.389404%)" offset="1"/></linearGradient><clipPath id="5dbeca35fe"><rect x="0" width="1136" y="0" height="541"/></clipPath><clipPath id="c9019ab6fa"><path d="M 0 0.0546875 L 1135.5 0.0546875 L 1135.5 540.445312 L 0 540.445312 Z M 0 0.0546875 " clip-rule="nonzero"/></clipPath><clipPath id="c03fc9e7e7"><rect x="0" width="1136" y="0" height="541"/></clipPath><clipPath id="f409e2ebdf"><rect x="0" width="1136" y="0" height="541"/></clipPath><mask id="fc3a06e5b1"><g filter="url(#b8fe1bca3e)"><g transform="matrix(1, 0, 0, 1, 0, 0.000000000000159948)"><g clip-path="url(#f409e2ebdf)"><g clip-path="url(#c9019ab6fa)"><g transform="matrix(1, 0, 0, 1, 0, 0.000000000000159948)"><g clip-path="url(#c03fc9e7e7)"><g fill="#000000" fill-opacity="1"><g transform="translate(50.250278, 378.705344)"><g><path d="M 22.1875 0 L 22.1875 -228.40625 L 63.953125 -228.40625 L 171.3125 -67.546875 L 171.3125 -228.40625 L 213.078125 -228.40625 L 213.078125 0 L 171.3125 0 L 63.953125 -160.53125 L 63.953125 0 Z M 22.1875 0 "/></g></g></g><g fill="#000000" fill-opacity="1"><g transform="translate(239.499229, 378.705344)"><g><path d="M 99.84375 3.921875 C 83.53125 3.921875 69.066406 0.441406 56.453125 -6.515625 C 43.835938 -13.484375 33.9375 -23.273438 26.75 -35.890625 C 19.570312 -48.503906 15.984375 -63.078125 15.984375 -79.609375 C 15.984375 -96.359375 19.519531 -111.257812 26.59375 -124.3125 C 33.664062 -137.363281 43.453125 -147.535156 55.953125 -154.828125 C 68.460938 -162.117188 83.203125 -165.765625 100.171875 -165.765625 C 116.054688 -165.765625 130.085938 -162.28125 142.265625 -155.3125 C 154.441406 -148.351562 163.957031 -138.835938 170.8125 -126.765625 C 177.664062 -114.691406 181.09375 -101.257812 181.09375 -86.46875 C 181.09375 -84.070312 181.035156 -81.566406 180.921875 -78.953125 C 180.816406 -76.347656 180.65625 -73.632812 180.4375 -70.8125 L 57.421875 -70.8125 C 58.296875 -58.1875 62.703125 -48.285156 70.640625 -41.109375 C 78.578125 -33.929688 88.203125 -30.34375 99.515625 -30.34375 C 108.003906 -30.34375 115.128906 -32.242188 120.890625 -36.046875 C 126.660156 -39.859375 130.957031 -44.8125 133.78125 -50.90625 L 176.203125 -50.90625 C 173.148438 -40.675781 168.085938 -31.375 161.015625 -23 C 153.953125 -14.625 145.253906 -8.039062 134.921875 -3.25 C 124.585938 1.53125 112.894531 3.921875 99.84375 3.921875 Z M 100.171875 -131.828125 C 89.953125 -131.828125 80.925781 -128.941406 73.09375 -123.171875 C 65.257812 -117.410156 60.253906 -108.65625 58.078125 -96.90625 L 138.671875 -96.90625 C 138.023438 -107.570312 134.109375 -116.054688 126.921875 -122.359375 C 119.742188 -128.671875 110.828125 -131.828125 100.171875 -131.828125 Z M 100.171875 -131.828125 "/></g></g></g><g fill="#000000" fill-opacity="1"><g transform="translate(388.614143, 378.705344)"><g><path d="M 95.609375 3.921875 C 80.378906 3.921875 66.78125 0.222656 54.8125 -7.171875 C 42.851562 -14.566406 33.390625 -24.679688 26.421875 -37.515625 C 19.460938 -50.359375 15.984375 -64.9375 15.984375 -81.25 C 15.984375 -97.5625 19.460938 -112.078125 26.421875 -124.796875 C 33.390625 -137.523438 42.851562 -147.535156 54.8125 -154.828125 C 66.78125 -162.117188 80.378906 -165.765625 95.609375 -165.765625 C 107.785156 -165.765625 118.441406 -163.476562 127.578125 -158.90625 C 136.710938 -154.332031 144.109375 -147.914062 149.765625 -139.65625 L 149.765625 -234.9375 L 191.53125 -234.9375 L 191.53125 0 L 154.34375 0 L 149.765625 -23.171875 C 144.546875 -15.992188 137.640625 -9.679688 129.046875 -4.234375 C 120.453125 1.203125 109.304688 3.921875 95.609375 3.921875 Z M 104.421875 -32.625 C 117.898438 -32.625 128.9375 -37.140625 137.53125 -46.171875 C 146.125 -55.203125 150.421875 -66.785156 150.421875 -80.921875 C 150.421875 -95.054688 146.125 -106.640625 137.53125 -115.671875 C 128.9375 -124.703125 117.898438 -129.21875 104.421875 -129.21875 C 91.148438 -129.21875 80.160156 -124.753906 71.453125 -115.828125 C 62.753906 -106.910156 58.40625 -95.382812 58.40625 -81.25 C 58.40625 -67.101562 62.753906 -55.460938 71.453125 -46.328125 C 80.160156 -37.191406 91.148438 -32.625 104.421875 -32.625 Z M 104.421875 -32.625 "/></g></g></g></g></g></g></g></g></g></mask><clipPath id="1a10b5d260"><path d="M 0 0.0546875 L 1135.5 0.0546875 L 1135.5 540.445312 L 0 540.445312 Z M 0 0.0546875 " clip-rule="nonzero"/></clipPath><clipPath id="a5bb178d30"><rect x="0" width="1136" y="0" height="541"/></clipPath><clipPath id="0f14c28899"><rect x="0" width="1136" y="0" height="541"/></clipPath><clipPath id="a70e0ee560"><rect x="0" width="1136" y="0" height="541"/></clipPath><clipPath id="f72da1337d"><rect x="0" width="1136" y="0" height="541"/></clipPath></defs><g clip-path="url(#5dd16c4598)"><g transform="matrix(1, 0, 0, 1, 0, 0.000000000000159948)"><g clip-path="url(#f72da1337d)"><g transform="matrix(1, 0, 0, 1, 469, 58)"><g clip-path="url(#c1297b40e2)"><g fill="#000000" fill-opacity="1"><g transform="translate(0.325429, 323.764415)"><g><path d="M 17.609375 -77 L 17.609375 -111.921875 L 154.328125 -111.921875 L 154.328125 -77 Z M 17.609375 -77 "/></g></g></g><g fill="#000000" fill-opacity="1"><g transform="translate(126.273528, 323.764415)"><g><path d="M 98.875 3.921875 C 83.207031 3.921875 69.117188 0.332031 56.609375 -6.84375 C 44.097656 -14.03125 34.195312 -23.984375 26.90625 -36.703125 C 19.625 -49.429688 15.984375 -64.171875 15.984375 -80.921875 C 15.984375 -97.671875 19.679688 -112.40625 27.078125 -125.125 C 34.472656 -137.851562 44.425781 -147.804688 56.9375 -154.984375 C 69.445312 -162.171875 83.53125 -165.765625 99.1875 -165.765625 C 114.632812 -165.765625 128.613281 -162.171875 141.125 -154.984375 C 153.632812 -147.804688 163.53125 -137.851562 170.8125 -125.125 C 178.101562 -112.40625 181.75 -97.671875 181.75 -80.921875 C 181.75 -64.171875 178.101562 -49.429688 170.8125 -36.703125 C 163.53125 -23.984375 153.578125 -14.03125 140.953125 -6.84375 C 128.335938 0.332031 114.3125 3.921875 98.875 3.921875 Z M 98.875 -32.296875 C 109.75 -32.296875 119.207031 -36.375 127.25 -44.53125 C 135.300781 -52.695312 139.328125 -64.828125 139.328125 -80.921875 C 139.328125 -97.015625 135.300781 -109.140625 127.25 -117.296875 C 119.207031 -125.460938 109.851562 -129.546875 99.1875 -129.546875 C 88.09375 -129.546875 78.578125 -125.460938 70.640625 -117.296875 C 62.703125 -109.140625 58.734375 -97.015625 58.734375 -80.921875 C 58.734375 -64.828125 62.703125 -52.695312 70.640625 -44.53125 C 78.578125 -36.375 87.988281 -32.296875 98.875 -32.296875 Z M 98.875 -32.296875 "/></g></g></g><g fill="#000000" fill-opacity="1"><g transform="translate(277.998778, 323.764415)"><g><path d="M 21.203125 71.78125 L 21.203125 -161.84375 L 58.40625 -161.84375 L 62.96875 -138.671875 C 68.195312 -145.847656 75.101562 -152.15625 83.6875 -157.59375 C 92.28125 -163.039062 103.429688 -165.765625 117.140625 -165.765625 C 132.367188 -165.765625 145.960938 -162.066406 157.921875 -154.671875 C 169.890625 -147.273438 179.351562 -137.15625 186.3125 -124.3125 C 193.269531 -111.476562 196.75 -96.90625 196.75 -80.59375 C 196.75 -64.28125 193.269531 -49.757812 186.3125 -37.03125 C 179.351562 -24.3125 169.890625 -14.304688 157.921875 -7.015625 C 145.960938 0.273438 132.367188 3.921875 117.140625 3.921875 C 104.960938 3.921875 94.300781 1.640625 85.15625 -2.921875 C 76.019531 -7.492188 68.625 -13.914062 62.96875 -22.1875 L 62.96875 71.78125 Z M 108.328125 -32.625 C 121.597656 -32.625 132.582031 -37.082031 141.28125 -46 C 149.988281 -54.925781 154.34375 -66.457031 154.34375 -80.59375 C 154.34375 -94.726562 149.988281 -106.363281 141.28125 -115.5 C 132.582031 -124.644531 121.597656 -129.21875 108.328125 -129.21875 C 94.835938 -129.21875 83.796875 -124.703125 75.203125 -115.671875 C 66.617188 -106.640625 62.328125 -95.054688 62.328125 -80.921875 C 62.328125 -66.785156 66.617188 -55.203125 75.203125 -46.171875 C 83.796875 -37.140625 94.835938 -32.625 108.328125 -32.625 Z M 108.328125 -32.625 "/></g></g></g><g fill="#000000" fill-opacity="1"><g transform="translate(444.733513, 323.764415)"><g><path d="M 88.09375 3.921875 C 73.738281 3.921875 61.125 1.582031 50.25 -3.09375 C 39.375 -7.769531 30.671875 -14.238281 24.140625 -22.5 C 17.617188 -30.769531 13.707031 -40.347656 12.40625 -51.234375 L 54.484375 -51.234375 C 55.796875 -44.921875 59.332031 -39.535156 65.09375 -35.078125 C 70.863281 -30.617188 78.316406 -28.390625 87.453125 -28.390625 C 96.585938 -28.390625 103.273438 -30.238281 107.515625 -33.9375 C 111.753906 -37.632812 113.875 -41.875 113.875 -46.65625 C 113.875 -53.625 110.828125 -58.359375 104.734375 -60.859375 C 98.648438 -63.359375 90.171875 -65.804688 79.296875 -68.203125 C 72.328125 -69.722656 65.253906 -71.566406 58.078125 -73.734375 C 50.898438 -75.910156 44.316406 -78.6875 38.328125 -82.0625 C 32.347656 -85.4375 27.507812 -89.785156 23.8125 -95.109375 C 20.113281 -100.441406 18.265625 -107.023438 18.265625 -114.859375 C 18.265625 -129.210938 23.972656 -141.285156 35.390625 -151.078125 C 46.816406 -160.867188 62.863281 -165.765625 83.53125 -165.765625 C 102.675781 -165.765625 117.957031 -161.300781 129.375 -152.375 C 140.789062 -143.457031 147.585938 -131.171875 149.765625 -115.515625 L 110.28125 -115.515625 C 107.894531 -127.472656 98.867188 -133.453125 83.203125 -133.453125 C 75.367188 -133.453125 69.332031 -131.925781 65.09375 -128.875 C 60.851562 -125.832031 58.734375 -122.03125 58.734375 -117.46875 C 58.734375 -112.675781 61.882812 -108.863281 68.1875 -106.03125 C 74.5 -103.207031 82.878906 -100.601562 93.328125 -98.21875 C 104.628906 -95.601562 115.007812 -92.71875 124.46875 -89.5625 C 133.9375 -86.414062 141.5 -81.738281 147.15625 -75.53125 C 152.8125 -69.332031 155.640625 -60.46875 155.640625 -48.9375 C 155.859375 -38.9375 153.25 -29.910156 147.8125 -21.859375 C 142.375 -13.804688 134.539062 -7.492188 124.3125 -2.921875 C 114.09375 1.640625 102.019531 3.921875 88.09375 3.921875 Z M 88.09375 3.921875 "/></g></g></g></g></g><g clip-path="url(#a597625905)"><g transform="matrix(1, 0, 0, 1, 0, 0.000000000000159948)"><g clip-path="url(#a70e0ee560)"><g clip-path="url(#59fe957631)"><g transform="matrix(1, 0, 0, 1, 0, 0.000000000000159948)"><g clip-path="url(#0f14c28899)"><g clip-path="url(#b4e6ef6a4f)"><g mask="url(#fc3a06e5b1)"><g transform="matrix(1, 0, 0, 1, 0, 0.000000000000159948)"><g clip-path="url(#a5bb178d30)"><g clip-path="url(#1a10b5d260)"><path fill="url(#59857b7787)" d="M 0 0.0546875 L 0 540.445312 L 1135.5 540.445312 L 1135.5 0.0546875 Z M 0 0.0546875 " fill-rule="nonzero"/></g></g></g></g></g></g></g></g></g></g></g></g></g></g></svg>